<svg xmlns="http://www.w3.org/2000/svg" width="24" height="24" viewBox="0 0 24 24" aria-hidden="true" focusable="false">
  <g fill="none" fill-rule="evenodd">
    <path d="M12 2c5.523 0 10 4.477 10 10s-4.477 10-10 10S2 17.523 2 12 6.477 2 12 2z" fill="#FFFFFF"/>
    <path d="M20.283 12.341c0-.546-.049-1.07-.14-1.57H12v2.97h4.635a3.96 3.96 0 0 1-1.72 2.598v2.159h2.787c1.63-1.501 2.561-3.71 2.561-6.157z" fill="#4285F4"/>
    <path d="M12 21c2.322 0 4.272-.77 5.696-2.102l-2.787-2.159c-.774.519-1.764.828-2.909.828-2.239 0-4.135-1.511-4.812-3.544H4.281v2.23A8.997 8.997 0 0 0 12 21z" fill="#34A853"/>
    <path d="M7.188 13.023A5.41 5.41 0 0 1 6.889 12c0-.356.061-.702.174-1.023V8.747H4.281A8.996 8.996 0 0 0 3 12c0 1.45.346 2.82.95 4.03l3.238-3.007z" fill="#FBBC05"/>
    <path d="M12 6.84c1.263 0 2.396.435 3.287 1.288l2.465-2.465C16.266 4.29 14.322 3.5 12 3.5A8.997 8.997 0 0 0 3.95 8.747l3.238 2.23C7.865 8.944 9.761 6.84 12 6.84z" fill="#EA4335"/>
  </g>
</svg>